HIERARCHY
ROOT Hips
{
	OFFSET -0.001795 -0.223333 0.028219
	CHANNELS 6 Xposition Yposition Zposition Zrotation Yrotation Xrotation 
	JOINT LeftUpLeg
	{
		OFFSET 0.069520 -0.091406 -0.006815
		CHANNELS 3 Zrotation Yrotation Xrotation
		JOINT LeftLeg
		{
			OFFSET 0.034277 -0.375199 -0.004496
			CHANNELS 3 Zrotation Yrotation Xrotation
			JOINT LeftFoot
			{
				OFFSET -0.013596 -0.397961 -0.043693
				CHANNELS 3 Zrotation Yrotation Xrotation
				JOINT LeftToe
				{
					OFFSET 0.026358 -0.055791 0.119288
					CHANNELS 3 Zrotation Yrotation Xrotation
					End Site
					{
						OFFSET 0.000000 0.000000 0.000000
					}
				}
			}
		}
	}
	JOINT RightUpLeg
	{
		OFFSET -0.067670 -0.090522 -0.004320
		CHANNELS 3 Zrotation Yrotation Xrotation
		JOINT RightLeg
		{
			OFFSET -0.038290 -0.382569 -0.008850
			CHANNELS 3 Zrotation Yrotation Xrotation
			JOINT RightFoot
			{
				OFFSET 0.015774 -0.398415 -0.042312
				CHANNELS 3 Zrotation Yrotation Xrotation
				JOINT RightToe
				{
					OFFSET -0.025372 -0.048144 0.123348
					CHANNELS 3 Zrotation Yrotation Xrotation
					End Site
					{
						OFFSET 0.000000 0.000000 0.000000
					}
				}
			}
		}
	}
	JOINT Spine
	{
		OFFSET -0.002533 0.108963 -0.026696
		CHANNELS 3 Zrotation Yrotation Xrotation
		JOINT Spine1
		{
			OFFSET 0.005487 0.135180 0.001092
			CHANNELS 3 Zrotation Yrotation Xrotation
			JOINT Spine2
			{
				OFFSET 0.001457 0.052922 0.025425
				CHANNELS 3 Zrotation Yrotation Xrotation
				JOINT Neck
				{
					OFFSET -0.002778 0.213870 -0.042857
					CHANNELS 3 Zrotation Yrotation Xrotation
					JOINT Head
					{
						OFFSET 0.005152 0.064970 0.051349
						CHANNELS 3 Zrotation Yrotation Xrotation
						End Site
						{
							OFFSET 0.000000 0.000000 0.000000
						}
					}
				}
				JOINT LeftShoulder
				{
					OFFSET 0.078845 0.121749 -0.034090
					CHANNELS 3 Zrotation Yrotation Xrotation
					JOINT LeftArm
					{
						OFFSET 0.090977 0.030469 -0.008868
						CHANNELS 3 Zrotation Yrotation Xrotation
						JOINT LeftForeArm
						{
							OFFSET 0.259612 -0.012772 -0.027456
							CHANNELS 3 Zrotation Yrotation Xrotation
							JOINT LeftHand
							{
								OFFSET 0.249234 0.008986 -0.001171
								CHANNELS 3 Zrotation Yrotation Xrotation
								End Site
								{
									OFFSET 0.000000 0.000000 0.000000
								}
							}
						}
					}
				}
				JOINT RightShoulder
				{
					OFFSET -0.081759 0.118833 -0.038615
					CHANNELS 3 Zrotation Yrotation Xrotation
					JOINT RightArm
					{
						OFFSET -0.096012 0.032551 -0.009143
						CHANNELS 3 Zrotation Yrotation Xrotation
						JOINT RightForeArm
						{
							OFFSET -0.253742 -0.013329 -0.021401
							CHANNELS 3 Zrotation Yrotation Xrotation
							JOINT RightHand
							{
								OFFSET -0.255298 0.007772 -0.005559
								CHANNELS 3 Zrotation Yrotation Xrotation
								End Site
								{
									OFFSET 0.000000 0.000000 0.000000
								}
							}
						}
					}
				}
			}
		}
	}
}
MOTION
Frames: 10
Frame Time: 0.050000
0.000000 0.934716 0.000000 -0.586100 -5.788061 -3.632960 5.358158 0.282560 4.423537 -4.693290 0.594080 0.713695 6.680135 14.639024 6.958918 0.000000 0.000000 0.000000 -3.494794 -0.073986 2.721913 2.838501 -0.204432 3.460132 -3.893979 -10.840953 3.914063 0.000000 0.000000 0.000000 6.515024 -0.386500 4.436269 -3.683074 1.492430 -13.003649 -3.255804 7.887479 18.321171 9.334535 -4.343481 -17.314154 0.000000 0.000000 0.000000 -6.960561 -28.771755 10.754666 -13.312780 -47.441216 0.789633 91.706615 -72.218031 -71.097919 0.000000 0.000000 0.000000 12.420081 19.129535 9.055488 21.190500 50.630427 4.597918 -86.128622 74.401985 -64.379267 0.000000 0.000000 0.000000 
-0.000113 0.935074 0.000138 -0.687113 -6.027554 -2.940903 6.035333 0.242649 4.060509 -4.839304 0.613872 0.611240 6.798798 14.842143 7.040934 0.000000 0.000000 0.000000 -3.524662 -0.011717 1.855953 2.073115 -0.108675 3.429830 -3.029820 -9.016559 4.034739 0.000000 0.000000 0.000000 7.013413 -0.303979 3.314589 -3.805740 1.565032 -10.800788 -3.332021 8.369260 16.843672 8.674175 -3.888905 -16.684497 0.000000 0.000000 0.000000 -5.634477 -28.139732 10.213240 -13.954863 -51.447902 1.250596 87.724167 -71.319129 -66.541106 0.000000 0.000000 0.000000 13.496880 19.008143 9.281247 22.096341 49.863308 4.889473 -92.751641 72.705400 -68.621339 0.000000 0.000000 0.000000 
-0.000056 0.935324 0.000339 -1.183667 -5.977233 -1.940556 6.360051 0.145383 2.381803 -4.244950 0.543964 2.078960 7.015382 15.175857 6.443672 0.000000 0.000000 0.000000 -3.626453 0.084462 0.487259 3.101575 -0.219067 4.204075 -2.966646 -8.888567 4.055231 0.000000 0.000000 0.000000 6.840656 -0.237440 2.449740 -3.633314 1.541128 -8.351655 -2.732761 7.558308 12.709754 7.504066 -3.562291 -13.844204 0.000000 0.000000 0.000000 -7.892683 -27.841210 10.522029 -16.352178 -51.704087 2.567968 84.123593 -71.276223 -63.005978 0.000000 0.000000 0.000000 11.565577 18.663572 8.596053 26.501895 49.207823 6.773346 -103.999729 74.308162 -81.293224 0.000000 0.000000 0.000000 
-0.000022 0.934889 0.000404 -1.057164 -6.717503 -2.400287 6.132769 0.204983 3.185109 -4.832160 0.634915 1.691458 8.067316 17.053399 6.340039 0.000000 0.000000 0.000000 -3.673958 0.082878 0.590461 3.034346 -0.195508 4.597192 -3.187089 -9.518768 4.442919 0.000000 0.000000 0.000000 6.782008 -0.293977 3.166406 -3.471043 1.474900 -7.683320 -3.167265 8.007079 11.757757 7.460320 -3.503200 -13.767761 0.000000 0.000000 0.000000 -9.305175 -27.450529 10.527731 -16.463337 -51.564883 2.676925 88.383273 -73.355224 -69.012906 0.000000 0.000000 0.000000 13.059342 18.906766 8.988962 26.070267 49.177925 6.620135 -110.187972 74.743859 -88.109203 0.000000 0.000000 0.000000 
-0.000012 0.934190 0.000561 -1.017566 -6.991758 -2.875240 5.748500 0.244392 3.622407 -4.505843 0.594185 1.928842 7.661890 16.329484 6.236846 0.000000 0.000000 0.000000 -3.888830 0.087039 0.636821 2.964361 -0.176945 4.926354 -2.738144 -8.533686 4.359869 0.000000 0.000000 0.000000 6.610593 -0.335702 3.762913 -3.404719 1.441953 -7.804684 -2.997208 7.727972 11.953446 7.203393 -3.181063 -14.948805 0.000000 0.000000 0.000000 -9.592451 -26.284724 10.130137 -19.162522 -51.627427 3.753686 94.815037 -74.520930 -76.134971 0.000000 0.000000 0.000000 11.977932 18.465673 8.484202 28.019952 48.782158 7.283935 -118.481140 75.161063 -97.389422 0.000000 0.000000 0.000000 
-0.000082 0.933420 0.000982 -0.731853 -8.009406 -2.876949 5.508826 0.287365 3.993384 -4.362560 0.580452 1.423577 7.898764 16.752958 6.326279 0.000000 0.000000 0.000000 -3.642277 0.104577 0.345549 2.242491 -0.069577 5.007424 -2.697757 -8.420569 4.199746 0.000000 0.000000 0.000000 6.242748 -0.350522 4.060848 -2.919400 1.230443 -7.315937 -3.412843 8.480859 11.103841 7.690315 -3.170146 -16.561312 0.000000 0.000000 0.000000 -10.484466 -25.117514 9.667001 -21.245518 -51.562732 4.609552 100.711604 -76.282079 -83.857429 0.000000 0.000000 0.000000 12.528788 17.754271 8.270634 29.824283 48.305062 7.890255 -129.892821 76.086672 -110.770697 0.000000 0.000000 0.000000 
-0.000226 0.933461 0.001370 -0.698253 -8.292069 -2.518797 5.446024 0.272250 3.698606 -4.165539 0.552341 1.172507 8.017822 16.959632 6.380012 0.000000 0.000000 0.000000 -3.410653 0.146332 -0.386282 2.112447 -0.043563 5.195990 -2.689761 -8.469375 4.335775 0.000000 0.000000 0.000000 5.870597 -0.356845 4.176918 -2.503932 1.054562 -7.183125 -3.398463 8.458837 10.229962 7.880334 -3.187158 -17.134089 0.000000 0.000000 0.000000 -11.611294 -23.943031 9.279827 -23.843585 -50.922406 5.600458 114.471971 -79.219832 -100.990652 0.000000 0.000000 0.000000 12.426391 17.566519 8.120727 32.072549 47.543513 8.586505 -138.925096 77.305705 -122.286466 0.000000 0.000000 0.000000 
-0.000262 0.933996 0.001565 -0.604525 -8.378798 -2.094285 5.124926 0.244719 3.216799 -3.772220 0.497264 1.367942 7.883783 16.711796 6.057614 0.000000 0.000000 0.000000 -3.243952 0.189132 -1.072068 1.576786 0.050419 5.769359 -2.472058 -7.853204 3.951644 0.000000 0.000000 0.000000 5.733468 -0.340229 3.940374 -2.443831 1.044917 -6.020009 -3.521800 8.296438 8.906166 7.831468 -3.183606 -16.823988 0.000000 0.000000 0.000000 -11.926855 -23.412094 9.059541 -25.006367 -50.463094 6.068697 125.942451 -80.321009 -114.363525 0.000000 0.000000 0.000000 12.454137 17.450279 8.036937 33.397624 46.524708 8.856420 -148.795439 77.791157 -134.313692 0.000000 0.000000 0.000000 
-0.000238 0.934233 0.001564 -0.694894 -8.494575 -2.049547 5.140675 0.244623 3.199709 -3.549255 0.465957 1.413284 7.479720 15.970819 5.665131 0.000000 0.000000 0.000000 -3.390934 0.182216 -0.881599 1.866208 -0.005080 5.304071 -2.256481 -7.406505 4.002569 0.000000 0.000000 0.000000 5.921518 -0.349416 3.980881 -2.721567 1.160687 -6.029761 -3.166689 8.260341 9.213581 7.549011 -2.997433 -17.018979 0.000000 0.000000 0.000000 -11.879752 -23.412593 9.095221 -25.209889 -50.447646 6.129986 128.013090 -80.831426 -116.995919 0.000000 0.000000 0.000000 12.553242 17.373876 7.985097 34.307459 46.126466 9.035819 -153.974899 78.296633 -140.851988 0.000000 0.000000 0.000000 
-0.000252 0.934708 0.001455 -0.704051 -8.555658 -2.607157 5.161497 0.277716 3.626412 -3.802681 0.505047 1.569485 7.384892 15.801288 5.565568 0.000000 0.000000 0.000000 -3.194927 0.131303 -0.251787 1.864845 -0.008672 5.198654 -2.380765 -7.750794 4.186149 0.000000 0.000000 0.000000 6.162798 -0.378044 4.364191 -3.001341 1.273168 -6.392133 -2.820699 8.301024 10.397812 7.422918 -2.840161 -17.740286 0.000000 0.000000 0.000000 -11.974148 -23.712296 9.287199 -23.999877 -50.450722 5.592165 126.650910 -80.864481 -115.478281 0.000000 0.000000 0.000000 12.694267 17.420587 8.018541 34.322995 45.907908 8.877026 -156.400037 78.735270 -143.994219 0.000000 0.000000 0.000000 
